<?xml version="1.0" encoding="utf-8"?>
<!-- Generator: Adobe Illustrator 19.0.0, SVG Export Plug-In . SVG Version: 6.00 Build 0)  -->
<svg version="1.1" id="Capa_1" xmlns="http://www.w3.org/2000/svg" xmlns:xlink="http://www.w3.org/1999/xlink" x="0px" y="0px"
	 viewBox="-317 119.9 323.1 323.1" style="enable-background:new -317 119.9 323.1 323.1;" xml:space="preserve">
<style type="text/css">
	.st0{fill:#E2E482;}
</style>
<g>
	<g>
		<path class="st0" d="M-76.8,398.5c-58.2,33.7-129.7-8.5-123.3-76.6c0.2-3.5,1.1-7.2,1.8-10.4c44.5,7,96.2-7.1,113.8-41.5
			c15.8-31.1-13.3-53.7-42.1-44c-34.3,11.5-65,36.2-79.9,69.5c-27.7-6.8-50.7-24-54.7-55.4c-6.7-52.8,48.3-98.8,97.5-99.4
			c5.1,0.3,5.9-7.6,0.8-7.9c-65.2-6.4-127.8,63.5-106.9,127.7c8.3,24.8,31.1,40.9,58.6,48.2c-10,35.8,6,73.6,33.7,96.7
			c32.1,26.6,72.9,22.3,106,2C-66.4,404.4-71.8,395.8-76.8,398.5z M-149.9,251.8c12.4-7.9,28-16.4,43.5-15.5
			c14.9,0.6,12.3,20.6,9.7,28.9c-3.5,10.3-14.1,16.6-23.5,21.1c-19.8,10.3-47.9,15-73.6,11.9C-184.5,279.1-167.3,263.6-149.9,251.8z
			"/>
		<path class="st0" d="M-41.3,391c-14.1-5.6-29.2-10.3-44.3-12.2c-6.1-0.7-6.7,7.9-0.6,9c11.9,2.4,23.3,7.5,34.2,12.3
			c-3.1,6.4-6.4,13.2-9.9,19.4c-3,4.6-9.5,10.8-8.5,17.1c0.5,3.1,3,4.1,5.9,4.1c7.1-0.2,11.3-10.7,14.5-15.9c5.1-8.5,9-16.9,12.6-26
			C-36.1,395.8-38.2,392.1-41.3,391z"/>
	</g>
</g>
</svg>
