<?xml version="1.0" encoding="utf-8"?>
<!-- Generator: Adobe Illustrator 19.0.0, SVG Export Plug-In . SVG Version: 6.00 Build 0)  -->
<svg version="1.1" id="Capa_1" xmlns="http://www.w3.org/2000/svg" xmlns:xlink="http://www.w3.org/1999/xlink" x="0px" y="0px"
	 viewBox="-299 101.8 359.2 359.2" style="enable-background:new -299 101.8 359.2 359.2;" xml:space="preserve">
<style type="text/css">
	.st0{fill:#E2E482;}
</style>
<g>
	<g>
		<path class="st0" d="M52.7,312.4c-0.6-46.5-6.7-95.5-19-140.8c-3.1-9.8-17.7-6.1-15.3,4.3c9.8,40.4,15.9,81.4,17.7,123
			c1.8,41.6,2.4,97.3-27.5,129.7c-15.3,16.6-42.8,16-63.6,17.2c-30.6,1.8-61.8,1.2-92.4-0.6c-30.6-1.2-61.8-4.3-92.4-8
			c-16.5-1.8-43.5-11-58.1-3.1c-1.2,0.6-1.2,2.4-0.6,3.1c11,14.1,42.2,13.5,58.8,15.9c36.7,4.9,72.8,7.3,109.5,9.2
			c44.7,1.8,114.4,11,149.9-22.6C52.1,410.3,52.7,352.8,52.7,312.4z"/>
		<path class="st0" d="M39.2,119.6c-4.3-6.1-11.6-4.9-14.7,1.8c-8.6,20.8-22,39.8-30.6,60.6c-2.4,6.1,6.7,9.2,9.8,4.3
			c9.8-15.9,19-31.8,28.8-47.7c2.4,4.9,4.9,9.8,7.3,14.7c3.1,8,3.7,15.9,7.3,23.3c2.4,5.5,9.8,3.1,11.6-1.2
			C64.9,158.1,49,133.7,39.2,119.6z"/>
	</g>
</g>
</svg>
