<?xml version="1.0" encoding="utf-8"?>
<!-- Generator: Adobe Illustrator 19.0.0, SVG Export Plug-In . SVG Version: 6.00 Build 0)  -->
<svg version="1.1" id="Layer_1" xmlns="http://www.w3.org/2000/svg" xmlns:xlink="http://www.w3.org/1999/xlink" x="0px" y="0px"
	 viewBox="0 0 1920 1080" style="enable-background:new 0 0 1920 1080;" xml:space="preserve">
<style type="text/css">
	.st0{fill:#0000CC;}
	.st1{fill:none;stroke:#FF0000;stroke-miterlimit:10;}
	.st2{fill:#FFFFFF;}
</style>
<rect id="XMLID_1_" class="st0" width="1920" height="1080"/>
<g id="XMLID_20_">
	<rect id="XMLID_21_" x="-0.5" y="0.5" class="st1" width="1920" height="1080"/>
	<line id="XMLID_22_" class="st1" x1="0" y1="1029.5" x2="1920" y2="1029.5"/>
	<line id="XMLID_23_" class="st1" x1="0" y1="977.5" x2="1920" y2="977.5"/>
	<line id="XMLID_24_" class="st1" x1="0" y1="926.5" x2="1920" y2="926.5"/>
	<line id="XMLID_25_" class="st1" x1="0" y1="875.5" x2="1920" y2="875.5"/>
	<line id="XMLID_26_" class="st1" x1="0" y1="823.5" x2="1920" y2="823.5"/>
	<line id="XMLID_27_" class="st1" x1="0" y1="771.5" x2="1920" y2="771.5"/>
	<line id="XMLID_28_" class="st1" x1="0" y1="720.5" x2="1920" y2="720.5"/>
	<line id="XMLID_29_" class="st1" x1="0" y1="668.5" x2="1920" y2="668.5"/>
	<line id="XMLID_30_" class="st1" x1="0" y1="617.5" x2="1920" y2="617.5"/>
	<line id="XMLID_31_" class="st1" x1="0" y1="566.5" x2="1920" y2="566.5"/>
	<line id="XMLID_32_" class="st1" x1="0" y1="514.5" x2="1920" y2="514.5"/>
	<line id="XMLID_33_" class="st1" x1="0" y1="463.5" x2="1920" y2="463.5"/>
	<line id="XMLID_34_" class="st1" x1="0" y1="412.5" x2="1920" y2="412.5"/>
	<line id="XMLID_35_" class="st1" x1="0" y1="361.5" x2="1920" y2="361.5"/>
	<line id="XMLID_36_" class="st1" x1="0" y1="309.5" x2="1920" y2="309.5"/>
	<line id="XMLID_37_" class="st1" x1="0" y1="257.5" x2="1920" y2="257.5"/>
	<line id="XMLID_38_" class="st1" x1="0" y1="206.5" x2="1920" y2="206.5"/>
	<line id="XMLID_39_" class="st1" x1="0" y1="154.5" x2="1920" y2="154.5"/>
	<line id="XMLID_40_" class="st1" x1="0" y1="103.5" x2="1920" y2="103.5"/>
	<line id="XMLID_41_" class="st1" x1="0" y1="52.5" x2="1920" y2="52.5"/>
	<line id="XMLID_42_" class="st1" x1="1828.5" y1="0" x2="1828.5" y2="1080"/>
	<line id="XMLID_43_" class="st1" x1="1737.5" y1="0" x2="1737.5" y2="1080"/>
	<line id="XMLID_44_" class="st1" x1="1645.5" y1="0" x2="1645.5" y2="1080"/>
	<line id="XMLID_45_" class="st1" x1="1553.5" y1="0" x2="1553.5" y2="1080"/>
	<line id="XMLID_46_" class="st1" x1="1462.5" y1="0" x2="1462.5" y2="1080"/>
	<line id="XMLID_47_" class="st1" x1="1371.5" y1="0" x2="1371.5" y2="1080"/>
	<line id="XMLID_48_" class="st1" x1="1279.5" y1="0" x2="1279.5" y2="1080"/>
	<line id="XMLID_49_" class="st1" x1="1188.5" y1="0" x2="1188.5" y2="1080"/>
	<line id="XMLID_50_" class="st1" x1="1097.5" y1="0" x2="1097.5" y2="1080"/>
	<line id="XMLID_51_" class="st1" x1="1005.5" y1="0" x2="1005.5" y2="1080"/>
	<line id="XMLID_52_" class="st1" x1="913.5" y1="0" x2="913.5" y2="1080"/>
	<line id="XMLID_53_" class="st1" x1="822.5" y1="0" x2="822.5" y2="1080"/>
	<line id="XMLID_54_" class="st1" x1="731.5" y1="0" x2="731.5" y2="1080"/>
	<line id="XMLID_55_" class="st1" x1="639.5" y1="0" x2="639.5" y2="1080"/>
	<line id="XMLID_56_" class="st1" x1="548.5" y1="0" x2="548.5" y2="1080"/>
	<line id="XMLID_57_" class="st1" x1="457.5" y1="0" x2="457.5" y2="1080"/>
	<line id="XMLID_58_" class="st1" x1="365.5" y1="0" x2="365.5" y2="1080"/>
	<line id="XMLID_59_" class="st1" x1="273.5" y1="0" x2="273.5" y2="1080"/>
	<line id="XMLID_60_" class="st1" x1="182.5" y1="0" x2="182.5" y2="1080"/>
	<line id="XMLID_61_" class="st1" x1="91.5" y1="0" x2="91.5" y2="1080"/>
</g>
<polygon id="XMLID_7_" class="st2" points="1890.7,1045 1873.3,1074.9 1856,1044.9 "/>
<polygon id="XMLID_8_" class="st2" points="1890.7,991 1873.3,1020.9 1856,990.9 "/>
<polygon id="XMLID_9_" class="st2" points="1890.7,937 1873.3,966.9 1856,936.9 "/>
<polygon id="XMLID_10_" class="st2" points="1890.7,887 1873.3,916.9 1856,886.9 "/>
<polygon id="XMLID_11_" class="st2" points="1890.7,836 1873.3,865.9 1856,835.9 "/>
<polygon id="XMLID_12_" class="st2" points="1890.7,784 1873.3,813.9 1856,783.9 "/>
<polygon id="XMLID_13_" class="st2" points="1890.7,732 1873.3,761.9 1856,731.9 "/>
<polygon id="XMLID_14_" class="st2" points="1890.7,680 1873.3,709.9 1856,679.9 "/>
<polygon id="XMLID_15_" class="st2" points="1890.7,628 1873.3,657.9 1856,627.9 "/>
<polygon id="XMLID_16_" class="st2" points="1890.7,577 1873.3,606.9 1856,576.9 "/>
<polygon id="XMLID_17_" class="st2" points="1890.7,525 1873.3,554.9 1856,524.9 "/>
<polygon id="XMLID_18_" class="st2" points="1890.7,478 1873.3,507.9 1856,477.9 "/>
<polygon id="XMLID_19_" class="st2" points="1890.7,425 1873.3,454.9 1856,424.9 "/>
<polygon id="XMLID_62_" class="st2" points="1890.7,374 1873.3,403.9 1856,373.9 "/>
<polygon id="XMLID_63_" class="st2" points="1890.7,321 1873.3,350.9 1856,320.9 "/>
<polygon id="XMLID_64_" class="st2" points="1890.7,270 1873.3,299.9 1856,269.9 "/>
<polygon id="XMLID_65_" class="st2" points="1890.7,217 1873.3,246.9 1856,216.9 "/>
<polygon id="XMLID_66_" class="st2" points="1890.7,169 1873.3,198.9 1856,168.9 "/>
<polygon id="XMLID_67_" class="st2" points="1890.7,115 1873.3,144.9 1856,114.9 "/>
<polygon id="XMLID_68_" class="st2" points="1890.7,64 1873.3,93.9 1856,63.9 "/>
<polygon id="XMLID_69_" class="st2" points="1890.7,14 1873.3,43.9 1856,13.9 "/>
</svg>
